<?xml version="1.0" encoding="UTF-8" standalone="no"?>
<!DOCTYPE svg PUBLIC "-//W3C//DTD SVG 1.1//EN" "http://www.w3.org/Graphics/SVG/1.1/DTD/svg11.dtd">
<svg width="100%" height="100%" viewBox="0 0 112 134" version="1.1" xmlns="http://www.w3.org/2000/svg" xmlns:xlink="http://www.w3.org/1999/xlink" xml:space="preserve" xmlns:serif="http://www.serif.com/" style="fill-rule:evenodd;clip-rule:evenodd;stroke-linejoin:round;stroke-miterlimit:2;">
    <g transform="matrix(1,0,0,1,-6650.999074,0)">
        <g transform="matrix(1,0,0,1,-0.110308,0)">
            <g transform="matrix(0.444928,0,0,0.444928,6726.022196,50.35422)">
                <path d="M0,69.639C-0.144,69.655 -0.288,69.671 -0.431,69.687C-9.058,70.901 -16.503,81.829 -16.503,94.034C-16.503,106.24 -9.058,113.845 -0.447,111.193C7.621,108.716 13.787,98.06 13.787,87.26C13.787,76.684 7.876,68.856 0,69.639M0,-41.41C-0.144,-41.458 -0.288,-41.506 -0.431,-41.554C-9.058,-44.206 -16.503,-36.601 -16.503,-24.396C-16.503,-12.19 -9.058,-1.262 -0.447,-0.048C7.621,1.086 13.787,-6.806 13.787,-17.622C13.787,-28.198 7.876,-38.678 0,-41.41M34.332,16.966C27.99,16.439 22.558,24.411 22.558,34.827C22.558,45.228 27.99,53.2 34.332,52.673C40.323,52.177 44.94,44.189 44.94,34.827C44.94,25.449 40.323,17.461 34.332,16.966M60.837,61.108C60.741,61.108 60.661,61.124 60.581,61.124C55.708,61.811 51.57,69.735 51.57,78.809C51.57,87.868 55.708,93.938 60.581,92.453C65.198,91.031 68.793,83.219 68.793,74.943C68.793,66.859 65.342,60.708 60.837,61.108M60.837,-22.718C60.741,-22.75 60.661,-22.782 60.581,-22.798C55.708,-24.3 51.57,-18.229 51.57,-9.154C51.57,-0.096 55.708,7.828 60.581,8.515C65.198,9.154 68.793,2.955 68.793,-5.304C68.793,-13.404 65.342,-21.089 60.837,-22.718M60.837,-22.718C60.741,-22.75 60.661,-22.782 60.581,-22.798C55.708,-24.3 51.57,-18.229 51.57,-9.154C51.57,-0.096 55.708,7.828 60.581,8.515C65.198,9.154 68.793,2.955 68.793,-5.304C68.793,-13.404 65.342,-21.089 60.837,-22.718M60.837,61.108C60.741,61.108 60.661,61.124 60.581,61.124C55.708,61.811 51.57,69.735 51.57,78.809C51.57,87.868 55.708,93.938 60.581,92.453C65.198,91.031 68.793,83.219 68.793,74.943C68.793,66.859 65.342,60.708 60.837,61.108M34.332,16.966C27.99,16.439 22.558,24.411 22.558,34.827C22.558,45.228 27.99,53.2 34.332,52.673C40.323,52.177 44.94,44.189 44.94,34.827C44.94,25.449 40.323,17.461 34.332,16.966M0,-41.41C-0.144,-41.458 -0.288,-41.506 -0.431,-41.554C-9.058,-44.206 -16.503,-36.601 -16.503,-24.396C-16.503,-12.19 -9.058,-1.262 -0.447,-0.048C7.621,1.086 13.787,-6.806 13.787,-17.622C13.787,-28.198 7.876,-38.678 0,-41.41M0,69.639C-0.144,69.655 -0.288,69.671 -0.431,69.687C-9.058,70.901 -16.503,81.829 -16.503,94.034C-16.503,106.24 -9.058,113.845 -0.447,111.193C7.621,108.716 13.787,98.06 13.787,87.26C13.787,76.684 7.876,68.856 0,69.639M-149.519,14.618L-132.169,-17.526L-102.773,-23.581L-77.531,8.483L-77.531,61.172L-102.773,93.22L-132.169,87.181L-149.519,55.021L-149.519,14.618ZM-159.392,98.06L-57.466,127.185L-57.466,-57.546L-159.392,-28.422L-159.392,98.06ZM0,69.639C-0.144,69.655 -0.288,69.671 -0.431,69.687C-9.058,70.901 -16.503,81.829 -16.503,94.034C-16.503,106.24 -9.058,113.845 -0.447,111.193C7.621,108.716 13.787,98.06 13.787,87.26C13.787,76.684 7.876,68.856 0,69.639M0,-41.41C-0.144,-41.458 -0.288,-41.506 -0.431,-41.554C-9.058,-44.206 -16.503,-36.601 -16.503,-24.396C-16.503,-12.19 -9.058,-1.262 -0.447,-0.048C7.621,1.086 13.787,-6.806 13.787,-17.622C13.787,-28.198 7.876,-38.678 0,-41.41M34.332,16.966C27.99,16.439 22.558,24.411 22.558,34.827C22.558,45.228 27.99,53.2 34.332,52.673C40.323,52.177 44.94,44.189 44.94,34.827C44.94,25.449 40.323,17.461 34.332,16.966M60.837,61.108C60.741,61.108 60.661,61.124 60.581,61.124C55.708,61.811 51.57,69.735 51.57,78.809C51.57,87.868 55.708,93.938 60.581,92.453C65.198,91.031 68.793,83.219 68.793,74.943C68.793,66.859 65.342,60.708 60.837,61.108M60.581,8.515C65.198,9.154 68.793,2.955 68.793,-5.304C68.793,-13.404 65.342,-21.089 60.837,-22.718C60.741,-22.75 60.661,-22.782 60.581,-22.798C55.708,-24.3 51.57,-18.229 51.57,-9.154C51.57,-0.096 55.708,7.828 60.581,8.515M-77.531,61.172L-102.773,93.22L-132.169,87.181L-149.519,55.021L-149.519,14.618L-132.169,-17.526L-102.773,-23.581L-77.531,8.483L-77.531,61.172ZM-159.392,-28.422L-159.392,98.06L-57.466,127.185L-57.466,-57.546L-159.392,-28.422ZM0,69.639C-0.144,69.655 -0.288,69.671 -0.431,69.687C-9.058,70.901 -16.503,81.829 -16.503,94.034C-16.503,106.24 -9.058,113.845 -0.447,111.193C7.621,108.716 13.787,98.06 13.787,87.26C13.787,76.684 7.876,68.856 0,69.639M0,-41.41C-0.144,-41.458 -0.288,-41.506 -0.431,-41.554C-9.058,-44.206 -16.503,-36.601 -16.503,-24.396C-16.503,-12.19 -9.058,-1.262 -0.447,-0.048C7.621,1.086 13.787,-6.806 13.787,-17.622C13.787,-28.198 7.876,-38.678 0,-41.41M34.332,16.966C27.99,16.439 22.558,24.411 22.558,34.827C22.558,45.228 27.99,53.2 34.332,52.673C40.323,52.177 44.94,44.189 44.94,34.827C44.94,25.449 40.323,17.461 34.332,16.966M60.837,61.108C60.741,61.108 60.661,61.124 60.581,61.124C55.708,61.811 51.57,69.735 51.57,78.809C51.57,87.868 55.708,93.938 60.581,92.453C65.198,91.031 68.793,83.219 68.793,74.943C68.793,66.859 65.342,60.708 60.837,61.108M60.581,8.515C65.198,9.154 68.793,2.955 68.793,-5.304C68.793,-13.404 65.342,-21.089 60.837,-22.718C60.741,-22.75 60.661,-22.782 60.581,-22.798C55.708,-24.3 51.57,-18.229 51.57,-9.154C51.57,-0.096 55.708,7.828 60.581,8.515M60.837,-22.718C60.741,-22.75 60.661,-22.782 60.581,-22.798C55.708,-24.3 51.57,-18.229 51.57,-9.154C51.57,-0.096 55.708,7.828 60.581,8.515C65.198,9.154 68.793,2.955 68.793,-5.304C68.793,-13.404 65.342,-21.089 60.837,-22.718M60.837,61.108C60.741,61.108 60.661,61.124 60.581,61.124C55.708,61.811 51.57,69.735 51.57,78.809C51.57,87.868 55.708,93.938 60.581,92.453C65.198,91.031 68.793,83.219 68.793,74.943C68.793,66.859 65.342,60.708 60.837,61.108M34.332,16.966C27.99,16.439 22.558,24.411 22.558,34.827C22.558,45.228 27.99,53.2 34.332,52.673C40.323,52.177 44.94,44.189 44.94,34.827C44.94,25.449 40.323,17.461 34.332,16.966M0,-41.41C-0.144,-41.458 -0.288,-41.506 -0.431,-41.554C-9.058,-44.206 -16.503,-36.601 -16.503,-24.396C-16.503,-12.19 -9.058,-1.262 -0.447,-0.048C7.621,1.086 13.787,-6.806 13.787,-17.622C13.787,-28.198 7.876,-38.678 0,-41.41M0,69.639C-0.144,69.655 -0.288,69.671 -0.431,69.687C-9.058,70.901 -16.503,81.829 -16.503,94.034C-16.503,106.24 -9.058,113.845 -0.447,111.193C7.621,108.716 13.787,98.06 13.787,87.26C13.787,76.684 7.876,68.856 0,69.639M-77.531,61.172L-102.773,93.22L-132.169,87.181L-149.519,55.021L-149.519,14.618L-132.169,-17.526L-102.773,-23.581L-77.531,8.483L-77.531,61.172ZM-159.392,-28.422L-159.392,98.06L-57.466,127.185L-57.466,-57.546L-159.392,-28.422Z" style="fill:rgb(93,49,105);fill-rule:nonzero;"/>
            </g>
        </g>
        <g transform="matrix(1,0,0,1,-0.110308,0)">
            <g transform="matrix(0.444928,0,0,0.444928,6684.979737,67.925133)">
                <path d="M0,-38.741L-21.28,-6.821L-25.082,-1.134L-29.124,4.937L-32.271,-0.031L-31.505,-1.213L-26.983,-8.163L-3.882,-43.678L0,-38.741Z" style="fill:rgb(245,137,116);fill-rule:nonzero;"/>
            </g>
        </g>
        <g transform="matrix(1,0,0,1,-0.110308,0)">
            <g transform="matrix(0.444928,0,0,0.444928,6675.511672,67.441986)">
                <path d="M0,-7.157L0,0L-3.802,-0.048L-10.225,-0.128L-30.147,-0.399L-30.147,-6.774L-5.703,-7.077L0,-7.157Z" style="fill:rgb(251,176,64);fill-rule:nonzero;"/>
            </g>
        </g>
        <g transform="matrix(1,0,0,1,-0.110308,0)">
            <g transform="matrix(-0.418025,-0.152367,-0.152367,0.418025,6657.313376,95.738118)">
                <path d="M-129.581,16.353L5.266,16.353L3.753,20.504L-131.96,22.88L-129.581,16.353Z" style="fill:rgb(93,49,105);fill-rule:nonzero;"/>
            </g>
        </g>
        <g transform="matrix(1,0,0,1,-0.110308,0)">
            <g transform="matrix(-0.414491,-0.161735,-0.161735,0.414491,6659.75381,98.900763)">
                <path d="M-125.476,17.143L5.751,17.143L4.112,21.342L-128.001,23.613L-125.476,17.143Z" style="fill:rgb(93,49,105);fill-rule:nonzero;"/>
            </g>
        </g>
        <g transform="matrix(1,0,0,1,-0.110308,0)">
            <g transform="matrix(-0.410814,-0.170858,-0.170858,0.410814,6661.261872,101.61206)">
                <path d="M-123.791,18.303L6.322,18.303L4.574,22.504L-126.459,24.716L-123.791,18.303Z" style="fill:rgb(93,49,105);fill-rule:nonzero;"/>
            </g>
        </g>
        <g transform="matrix(1,0,0,1,-0.110308,0)">
            <g transform="matrix(0.444928,0,0,0.444928,6759.06801,30.586565)">
                <path d="M0,131.945C0,138.112 -2.588,144.071 -5.879,145.285L-89.929,176.15C-97.358,178.882 -103.684,173.227 -103.684,163.37L-103.684,-4.873C-103.684,-14.73 -97.358,-20.386 -89.929,-17.654L-5.879,13.212C-2.588,14.426 0,20.385 0,26.551L0,131.945ZM-129.006,173.642C-129.006,174.137 -129.198,174.601 -129.533,174.904C-129.773,175.128 -130.06,175.24 -130.364,175.24C-130.476,175.24 -130.588,175.224 -130.699,175.208L-235.342,145.301C-235.965,145.125 -236.396,144.486 -236.396,143.751L-236.396,14.745C-236.396,14.01 -235.965,13.371 -235.342,13.196L-130.699,-16.696C-130.284,-16.823 -129.853,-16.711 -129.533,-16.408C-129.198,-16.104 -129.006,-15.641 -129.006,-15.146L-129.006,173.642ZM-19.219,-29.876L-19.219,-6.95L-29.428,-10.8L-29.428,-34.125L-59.974,-46.842L-59.974,-22.335L-76.86,-28.709L-76.86,-53.872L-112.551,-68.745L-112.551,-42.193L-242.643,3.179L-242.643,155.318L-112.551,200.69L7.589,155.318L7.589,-18.708L-19.219,-29.876Z" style="fill:rgb(93,49,105);fill-rule:nonzero;"/>
            </g>
        </g>
        <g transform="matrix(1,0,0,1,-0.110308,0)">
            <g transform="matrix(0.000255,0.444928,0.444928,-0.000255,6657.608771,26.294528)">
                <path d="M-12.45,-5.677L3.269,-5.677L5.681,-12.466L-9.616,-12.457L-12.45,-5.677Z" style="fill:rgb(245,137,116);fill-rule:nonzero;"/>
            </g>
        </g>
        <g transform="matrix(1,0,0,1,-0.110308,0)">
            <g transform="matrix(0.444928,0,0,0.444928,6660.839732,24.558994)">
                <path d="M0,-11.139L0.006,-7.467C0.876,-7.809 1.489,-8.117 1.841,-8.39C2.194,-8.663 2.37,-9.167 2.369,-9.901L2.367,-10.817C2.366,-11.346 2.195,-11.623 1.853,-11.648C1.513,-11.674 0.894,-11.504 0,-11.139M-7.492,-10.829L-2.237,-13.029C1.388,-14.546 3.899,-15.518 5.232,-15.916C6.579,-16.318 7.687,-16.369 8.551,-16.065C9.42,-15.758 9.859,-14.874 9.863,-13.415C9.866,-12.082 9.56,-11.064 8.946,-10.365C8.335,-9.669 7.139,-8.93 5.373,-8.153C6.972,-8.558 8.058,-8.688 8.618,-8.539C9.18,-8.389 9.531,-8.187 9.67,-7.933C9.808,-7.678 9.88,-6.859 9.883,-5.475L9.895,-0.95L2.391,1.72L2.38,-3.826C2.379,-4.719 2.25,-5.223 1.995,-5.338C1.741,-5.453 1.077,-5.305 0.011,-4.895L0.023,2.562L-7.475,5.23L-7.492,-10.829Z" style="fill:rgb(245,137,116);fill-rule:nonzero;"/>
            </g>
        </g>
        <g transform="matrix(1,0,0,1,-0.110308,0)">
            <g transform="matrix(0.444928,0,0,0.444928,6672.068732,17.392897)">
                <path d="M0,1.521L0.02,6.587C1.331,6.083 2.174,5.669 2.538,5.347C2.904,5.024 3.085,4.493 3.082,3.755L3.075,2.048C3.072,1.265 2.906,0.853 2.576,0.814C2.247,0.774 1.385,1.011 0,1.521M-0.026,-5.316L-0.011,-1.295C0.386,-1.459 0.695,-1.584 0.916,-1.671C1.834,-2.033 2.421,-2.379 2.674,-2.708C2.927,-3.038 3.052,-3.745 3.047,-4.829C3.045,-5.401 2.938,-5.759 2.728,-5.903C2.518,-6.047 2.246,-6.081 1.911,-6.005C1.577,-5.928 0.93,-5.698 -0.026,-5.316M-9.004,-4.655L-0.06,-8.399C2.885,-9.631 5.157,-10.465 6.723,-10.883C8.306,-11.306 9.597,-11.361 10.59,-11.045C11.589,-10.724 12.095,-9.749 12.103,-8.123C12.109,-7.021 11.759,-6.114 11.056,-5.404C10.356,-4.697 8.983,-3.828 6.955,-2.807C9.219,-3.435 10.775,-3.617 11.601,-3.343C12.432,-3.066 12.852,-2.312 12.858,-1.083L12.866,0.671C12.873,1.948 12.578,3.003 11.982,3.836C11.39,4.663 10.447,5.42 9.162,6.103C7.887,6.781 5.308,7.809 1.492,9.167L-8.95,12.882L-9.004,-4.655Z" style="fill:rgb(245,137,116);fill-rule:nonzero;"/>
            </g>
        </g>
        <g transform="matrix(1,0,0,1,-0.110308,0)">
            <g transform="matrix(0.002909,0.444918,0.444918,-0.002909,6688.909121,15.529979)">
                <path d="M-17.366,-6.474L2.673,-6.474L6.516,-17.502L-12.841,-17.485L-17.366,-6.474Z" style="fill:rgb(245,137,116);fill-rule:nonzero;"/>
            </g>
        </g>
        <g transform="matrix(1,0,0,1,-0.110308,0)">
            <g transform="matrix(0.444928,0,0,0.444928,6695.527063,11.585565)">
                <path d="M0,-13.779L0.118,0.278C1.998,-0.411 3.163,-1.001 3.6,-1.487C4.038,-1.975 4.251,-2.941 4.239,-4.385L4.165,-12.786C4.156,-13.765 4.077,-14.362 3.928,-14.578C3.779,-14.794 3.442,-14.86 2.918,-14.776C2.396,-14.692 1.421,-14.359 0,-13.779M-12.504,-12.208L-3.26,-16.078C2.989,-18.694 7.349,-20.393 9.667,-21.108C12.016,-21.834 13.826,-22.166 15.079,-22.098C16.341,-22.029 17.138,-21.698 17.462,-21.103C17.787,-20.507 17.96,-19.145 17.981,-17.018L18.059,-9.144C18.08,-7.124 17.86,-5.688 17.401,-4.838C16.943,-3.99 16.142,-3.169 15.001,-2.375C13.867,-1.587 12.474,-0.823 10.828,-0.086C9.198,0.645 6.769,1.584 3.574,2.721L-12.354,8.387L-12.504,-12.208Z" style="fill:rgb(245,137,116);fill-rule:nonzero;"/>
            </g>
        </g>
        <g transform="matrix(1,0,0,1,-0.110308,0)">
            <g transform="matrix(0.444928,0,0,0.444928,6713.243156,124.330149)">
                <path d="M0,0.575L0.013,4.286C0.703,3.985 1.142,3.727 1.331,3.512C1.52,3.298 1.613,2.923 1.611,2.389L1.607,1.153C1.605,0.586 1.519,0.277 1.348,0.227C1.178,0.177 0.728,0.293 0,0.575M-0.018,-4.443L-0.008,-1.491C0.202,-1.582 0.365,-1.651 0.481,-1.698C0.961,-1.894 1.267,-2.102 1.397,-2.323C1.528,-2.543 1.593,-3.046 1.59,-3.832C1.588,-4.247 1.533,-4.516 1.424,-4.639C1.315,-4.761 1.174,-4.809 0.999,-4.782C0.825,-4.755 0.486,-4.642 -0.018,-4.443M-4.947,-4.729L-0.038,-6.711C1.504,-7.334 2.67,-7.72 3.461,-7.87C4.252,-8.02 4.89,-7.936 5.376,-7.618C5.861,-7.3 6.106,-6.57 6.109,-5.429C6.112,-4.656 5.942,-4.048 5.602,-3.605C5.261,-3.161 4.587,-2.651 3.579,-2.075C4.703,-2.355 5.465,-2.369 5.866,-2.117C6.266,-1.863 6.467,-1.308 6.47,-0.449L6.473,0.774C6.476,1.665 6.334,2.384 6.048,2.933C5.762,3.482 5.304,3.965 4.675,4.384C4.045,4.804 2.751,5.42 0.788,6.235L-4.892,8.595L-4.947,-4.729Z" style="fill:rgb(251,176,64);fill-rule:nonzero;"/>
            </g>
        </g>
        <g transform="matrix(1,0,0,1,-0.110308,0)">
            <g transform="matrix(0.444928,0,0,0.444928,6719.631919,123.385478)">
                <path d="M0,-7.026C-0.001,-7.636 -0.049,-8.008 -0.144,-8.139C-0.239,-8.271 -0.434,-8.277 -0.73,-8.158C-0.98,-8.056 -1.171,-7.91 -1.303,-7.718C-1.436,-7.526 -1.501,-7.092 -1.5,-6.416L-1.485,-0.286C-1.483,0.476 -1.439,0.928 -1.351,1.07C-1.264,1.212 -1.061,1.217 -0.743,1.086C-0.417,0.951 -0.21,0.763 -0.12,0.52C-0.029,0.278 0.015,-0.229 0.013,-1.001L0,-7.026ZM4.764,-4.669C4.766,-3.357 4.724,-2.411 4.639,-1.83C4.554,-1.249 4.285,-0.639 3.832,0C3.378,0.64 2.765,1.242 1.99,1.806C1.214,2.371 0.309,2.868 -0.726,3.299C-1.711,3.708 -2.597,3.961 -3.383,4.058C-4.171,4.155 -4.806,4.073 -5.288,3.812C-5.77,3.551 -6.058,3.168 -6.151,2.663C-6.244,2.159 -6.293,1.229 -6.297,-0.128L-6.303,-2.383C-6.307,-3.708 -6.265,-4.664 -6.179,-5.251C-6.093,-5.838 -5.819,-6.453 -5.358,-7.096C-4.897,-7.739 -4.275,-8.341 -3.491,-8.902C-2.708,-9.462 -1.797,-9.952 -0.758,-10.371C0.226,-10.768 1.109,-11.01 1.89,-11.095C2.671,-11.181 3.298,-11.091 3.772,-10.824C4.247,-10.558 4.529,-10.174 4.62,-9.673C4.711,-9.171 4.757,-8.248 4.76,-6.903L4.764,-4.669Z" style="fill:rgb(251,176,64);fill-rule:nonzero;"/>
            </g>
        </g>
        <g transform="matrix(1,0,0,1,-0.110308,0)">
            <g transform="matrix(0.444928,0,0,0.444928,6725.040507,119.428557)">
                <path d="M0,1.935C-0.238,0.563 -0.477,-1.158 -0.718,-3.226C-1.192,-0.545 -1.49,1.397 -1.611,2.598L0,1.935ZM2.465,-7.411L5.126,4.437L0.378,6.409L0.124,4.184L-1.548,4.874L-1.827,7.325L-6.692,9.346L-4.304,-4.678L2.465,-7.411Z" style="fill:rgb(251,176,64);fill-rule:nonzero;"/>
            </g>
        </g>
        <g transform="matrix(1,0,0,1,-0.110308,0)">
            <g transform="matrix(0.444928,0,0,0.444928,6729.717944,119.728394)">
                <path d="M0,-9.132L0,-6.271C0.515,-6.481 0.876,-6.68 1.083,-6.868C1.289,-7.055 1.393,-7.432 1.393,-7.998L1.393,-8.705C1.393,-9.112 1.293,-9.339 1.094,-9.385C0.895,-9.431 0.53,-9.347 0,-9.132M-4.607,-9.474L-1.342,-10.793C0.824,-11.667 2.286,-12.197 3.049,-12.383C3.81,-12.569 4.43,-12.509 4.909,-12.204C5.387,-11.899 5.626,-11.201 5.625,-10.11C5.625,-9.113 5.456,-8.375 5.117,-7.894C4.779,-7.413 4.113,-6.935 3.117,-6.458C4.019,-6.664 4.624,-6.693 4.933,-6.546C5.242,-6.398 5.435,-6.226 5.51,-6.027C5.585,-5.829 5.623,-5.214 5.622,-4.181L5.62,-0.809L1.391,0.947L1.392,-3.317C1.392,-4.005 1.318,-4.4 1.169,-4.503C1.021,-4.606 0.631,-4.528 0,-4.269L0,1.525L-4.602,3.437L-4.607,-9.474Z" style="fill:rgb(251,176,64);fill-rule:nonzero;"/>
            </g>
        </g>
        <g transform="matrix(1,0,0,1,-0.110308,0)">
            <g transform="matrix(0.444928,0,0,0.444928,6735.00778,117.515278)">
                <path d="M0,-8.982L-0.01,-0.609C0.636,-0.876 1.033,-1.136 1.182,-1.389C1.331,-1.641 1.406,-2.191 1.408,-3.038L1.414,-7.977C1.415,-8.554 1.391,-8.913 1.341,-9.055C1.292,-9.197 1.179,-9.27 1.001,-9.274C0.824,-9.278 0.49,-9.181 0,-8.982M-4.506,-9.341L-1.129,-10.705C1.04,-11.581 2.501,-12.098 3.262,-12.258C4.021,-12.418 4.597,-12.411 4.991,-12.236C5.385,-12.062 5.63,-11.79 5.728,-11.42C5.826,-11.05 5.874,-10.265 5.872,-9.065L5.864,-4.631C5.862,-3.495 5.788,-2.706 5.644,-2.263C5.499,-1.821 5.247,-1.417 4.888,-1.052C4.528,-0.686 4.084,-0.351 3.555,-0.045C3.025,0.261 2.227,0.636 1.158,1.08L-4.516,3.436L-4.506,-9.341Z" style="fill:rgb(251,176,64);fill-rule:nonzero;"/>
            </g>
        </g>
        <g transform="matrix(1,0,0,1,-0.110308,0)">
            <g transform="matrix(0.444928,0,0,0.444928,6742.833127,114.804511)">
                <path d="M0,-7.558L-4.363,-5.778L-4.36,-6.921C-4.358,-7.641 -4.399,-8.075 -4.481,-8.223C-4.564,-8.371 -4.762,-8.381 -5.074,-8.255C-5.345,-8.145 -5.53,-7.992 -5.628,-7.797C-5.725,-7.602 -5.775,-7.182 -5.777,-6.538L-5.791,-0.493C-5.792,0.072 -5.744,0.424 -5.648,0.562C-5.551,0.701 -5.356,0.71 -5.065,0.589C-4.746,0.457 -4.529,0.267 -4.414,0.017C-4.299,-0.232 -4.241,-0.649 -4.239,-1.234L-4.235,-2.725L-5.12,-2.361L-5.115,-4.274L-0.004,-6.366L-0.023,0.357L-2.758,1.493L-3.16,0.762C-3.459,1.273 -3.835,1.72 -4.289,2.102C-4.744,2.485 -5.282,2.805 -5.9,3.062C-6.637,3.369 -7.33,3.523 -7.974,3.524C-8.62,3.525 -9.11,3.397 -9.445,3.141C-9.782,2.886 -9.991,2.558 -10.074,2.158C-10.157,1.759 -10.198,1.124 -10.197,0.255L-10.189,-3.502C-10.187,-4.71 -10.098,-5.624 -9.921,-6.242C-9.745,-6.86 -9.241,-7.565 -8.411,-8.356C-7.582,-9.146 -6.513,-9.805 -5.205,-10.333C-3.92,-10.851 -2.858,-11.083 -2.015,-11.03C-1.174,-10.978 -0.627,-10.733 -0.374,-10.296C-0.12,-9.86 0.005,-9.128 0.002,-8.1L0,-7.558Z" style="fill:rgb(251,176,64);fill-rule:nonzero;"/>
            </g>
        </g>
        <g transform="matrix(1,0,0,1,-0.110308,0)">
            <g transform="matrix(0.444928,0,0,0.444928,6745.874209,110.861916)">
                <path d="M0,1.933C-0.212,0.612 -0.424,-1.044 -0.635,-3.034C-1.081,-0.468 -1.363,1.391 -1.479,2.541L0,1.933ZM2.299,-6.997L4.686,4.423L0.327,6.234L0.104,4.094L-1.431,4.728L-1.697,7.075L-6.163,8.93L-3.914,-4.488L2.299,-6.997Z" style="fill:rgb(251,176,64);fill-rule:nonzero;"/>
            </g>
        </g>
        <g transform="matrix(1,0,0,1,-0.110308,0)">
            <g transform="matrix(0.444928,0,0,0.444928,6754.06493,112.696709)">
                <path d="M0,-17.625L-0.066,-5.373L-3.699,-3.864L-3.662,-12.158L-5.157,-3.259L-7.756,-2.179L-9.263,-9.684L-9.305,-1.536L-13.002,0L-12.95,-12.396L-7.48,-14.605C-7.322,-13.928 -7.16,-13.121 -6.993,-12.183L-6.413,-9.289L-5.421,-15.436L0,-17.625Z" style="fill:rgb(251,176,64);fill-rule:nonzero;"/>
            </g>
        </g>
        <g transform="matrix(1,0,0,1,-0.110308,0)">
            <g transform="matrix(0.444928,0,0,0.444928,6754.804267,108.769376)">
                <path d="M0,-9.469L6.847,-12.233L6.831,-9.798L4.102,-8.69L4.088,-6.378L6.643,-7.421L6.628,-5.107L4.074,-4.059L4.058,-1.38L7.057,-2.619L7.042,-0.189L-0.068,2.764L0,-9.469Z" style="fill:rgb(251,176,64);fill-rule:nonzero;"/>
            </g>
        </g>
        <g transform="matrix(1,0,0,1,-0.110308,0)">
            <g transform="matrix(0.444928,0,0,0.444928,6762.283815,106.81503)">
                <path d="M0,-8.226L-3.729,-6.707L-3.723,-7.604C-3.72,-8.022 -3.766,-8.269 -3.861,-8.345C-3.956,-8.421 -4.115,-8.413 -4.338,-8.323C-4.581,-8.224 -4.766,-8.072 -4.891,-7.867C-5.017,-7.662 -5.081,-7.402 -5.083,-7.087C-5.086,-6.683 -5.018,-6.407 -4.878,-6.26C-4.747,-6.11 -4.368,-6.018 -3.743,-5.985C-1.959,-5.887 -0.84,-5.666 -0.381,-5.325C0.078,-4.983 0.302,-4.223 0.294,-3.044C0.288,-2.186 0.155,-1.501 -0.104,-0.989C-0.364,-0.476 -0.862,0.07 -1.6,0.651C-2.339,1.233 -3.199,1.727 -4.181,2.135C-5.26,2.584 -6.182,2.808 -6.946,2.807C-7.711,2.806 -8.211,2.608 -8.446,2.212C-8.681,1.816 -8.796,1.164 -8.79,0.254L-8.785,-0.541L-5.021,-2.088L-5.031,-0.617C-5.034,-0.163 -4.983,0.106 -4.879,0.192C-4.774,0.278 -4.588,0.265 -4.32,0.154C-4.052,0.043 -3.852,-0.121 -3.72,-0.339C-3.588,-0.557 -3.521,-0.828 -3.519,-1.151C-3.514,-1.862 -3.635,-2.276 -3.882,-2.393C-4.136,-2.507 -4.763,-2.614 -5.764,-2.715C-6.766,-2.821 -7.432,-2.925 -7.758,-3.025C-8.084,-3.126 -8.354,-3.34 -8.567,-3.667C-8.78,-3.994 -8.885,-4.48 -8.881,-5.126C-8.875,-6.056 -8.717,-6.799 -8.409,-7.353C-8.1,-7.907 -7.604,-8.443 -6.921,-8.961C-6.239,-9.478 -5.418,-9.93 -4.459,-10.317C-3.411,-10.74 -2.522,-10.968 -1.788,-11.001C-1.056,-11.034 -0.573,-10.898 -0.338,-10.595C-0.104,-10.291 0.01,-9.66 0.003,-8.702L0,-8.226Z" style="fill:rgb(251,176,64);fill-rule:nonzero;"/>
            </g>
        </g>
        <g transform="matrix(1,0,0,1,-0.110308,0)">
            <g transform="matrix(0.444928,0,0,0.444928,6715.937817,131.643161)">
                <path d="M0,-5.687L-4.637,-3.762L-4.637,-5.257C-4.637,-5.69 -4.686,-5.942 -4.785,-6.008C-4.884,-6.074 -5.102,-6.038 -5.44,-5.897C-5.821,-5.739 -6.063,-5.573 -6.166,-5.399C-6.269,-5.226 -6.32,-4.921 -6.32,-4.486L-6.32,-0.494C-6.32,-0.076 -6.269,0.175 -6.166,0.26C-6.063,0.344 -5.832,0.312 -5.473,0.163C-5.128,0.021 -4.903,-0.137 -4.796,-0.309C-4.69,-0.481 -4.637,-0.803 -4.637,-1.274L-4.637,-2.355L0,-4.279L0,-3.944C0,-3.053 -0.13,-2.368 -0.391,-1.887C-0.652,-1.407 -1.229,-0.841 -2.121,-0.191C-3.013,0.459 -4.112,1.054 -5.418,1.595C-6.775,2.157 -7.892,2.502 -8.772,2.629C-9.651,2.757 -10.233,2.67 -10.519,2.369C-10.804,2.069 -10.947,1.498 -10.947,0.656L-10.947,-1.853C-10.947,-2.472 -10.903,-2.954 -10.815,-3.3C-10.727,-3.646 -10.466,-4.053 -10.03,-4.521C-9.594,-4.988 -8.99,-5.465 -8.217,-5.951C-7.444,-6.437 -6.555,-6.889 -5.55,-7.306C-4.185,-7.874 -3.059,-8.215 -2.171,-8.33C-1.282,-8.444 -0.698,-8.37 -0.419,-8.105C-0.14,-7.841 0,-7.308 0,-6.504L0,-5.687Z" style="fill:rgb(245,137,116);fill-rule:nonzero;"/>
            </g>
        </g>
        <g transform="matrix(1,0,0,1,-0.110308,0)">
            <g transform="matrix(0.444928,0,0,0.444928,6719.335464,129.14716)">
                <path d="M0,-4.785C0,-5.186 -0.046,-5.423 -0.138,-5.496C-0.23,-5.57 -0.42,-5.547 -0.707,-5.428C-0.95,-5.327 -1.136,-5.204 -1.265,-5.06C-1.394,-4.916 -1.458,-4.623 -1.458,-4.179L-1.458,-0.158C-1.458,0.342 -1.416,0.633 -1.331,0.715C-1.246,0.797 -1.049,0.774 -0.74,0.645C-0.424,0.514 -0.221,0.363 -0.133,0.191C-0.044,0.02 0,-0.319 0,-0.827L0,-4.785ZM4.655,-3.886C4.655,-3.02 4.613,-2.389 4.528,-1.994C4.443,-1.598 4.178,-1.159 3.731,-0.676C3.285,-0.193 2.682,0.286 1.923,0.76C1.164,1.234 0.28,1.68 -0.729,2.099C-1.686,2.495 -2.546,2.776 -3.307,2.941C-4.069,3.106 -4.681,3.133 -5.145,3.024C-5.608,2.915 -5.883,2.702 -5.972,2.384C-6.06,2.066 -6.104,1.464 -6.104,0.578L-6.104,-0.894C-6.104,-1.759 -6.062,-2.388 -5.977,-2.783C-5.893,-3.178 -5.628,-3.617 -5.183,-4.099C-4.738,-4.582 -4.137,-5.06 -3.379,-5.535C-2.621,-6.01 -1.738,-6.457 -0.729,-6.876C0.228,-7.274 1.089,-7.556 1.851,-7.723C2.614,-7.889 3.228,-7.918 3.693,-7.81C4.157,-7.701 4.434,-7.488 4.522,-7.169C4.611,-6.851 4.655,-6.248 4.655,-5.361L4.655,-3.886Z" style="fill:rgb(245,137,116);fill-rule:nonzero;"/>
            </g>
        </g>
        <g transform="matrix(1,0,0,1,-0.110308,0)">
            <g transform="matrix(0.444928,0,0,0.444928,6728.593923,128.687238)">
                <path d="M0,-14.616L0,-5.973L-4.091,-4.278L-4.096,-10.107L-5.723,-3.602L-8.62,-2.401L-10.333,-7.383L-10.339,-1.689L-14.416,0L-14.416,-8.623L-8.38,-11.132C-8.2,-10.688 -8.015,-10.153 -7.825,-9.528L-7.161,-7.608L-6.088,-12.085L0,-14.616Z" style="fill:rgb(245,137,116);fill-rule:nonzero;"/>
            </g>
        </g>
        <g transform="matrix(1,0,0,1,-0.110308,0)">
            <g transform="matrix(0.444928,0,0,0.444928,6735.878549,125.68313)">
                <path d="M0,-14.671L0,-6.005L-4.112,-4.301L-4.118,-10.145L-5.754,-3.621L-8.665,-2.415L-10.388,-7.408L-10.393,-1.699L-14.492,0L-14.492,-8.646L-8.424,-11.169C-8.244,-10.723 -8.058,-10.188 -7.866,-9.561L-7.199,-7.636L-6.12,-12.127L0,-14.671Z" style="fill:rgb(245,137,116);fill-rule:nonzero;"/>
            </g>
        </g>
        <g transform="matrix(1,0,0,1,-0.110308,0)">
            <g transform="matrix(0.444928,0,0,0.444928,6741.492203,122.235562)">
                <path d="M0,-12.168L0,-6.365C0,-5.707 -0.045,-5.226 -0.135,-4.923C-0.225,-4.619 -0.49,-4.235 -0.932,-3.772C-1.373,-3.308 -1.955,-2.854 -2.677,-2.41C-3.398,-1.967 -4.249,-1.542 -5.228,-1.136C-6.311,-0.687 -7.267,-0.377 -8.096,-0.205C-8.925,-0.033 -9.544,0 -9.954,-0.104C-10.365,-0.209 -10.607,-0.399 -10.682,-0.673C-10.756,-0.947 -10.794,-1.573 -10.794,-2.551L-10.794,-7.68L-6.08,-9.64L-6.08,-3.136C-6.08,-2.757 -6.037,-2.533 -5.951,-2.463C-5.865,-2.393 -5.691,-2.413 -5.43,-2.521C-5.131,-2.645 -4.938,-2.783 -4.852,-2.934C-4.766,-3.086 -4.723,-3.378 -4.723,-3.811L-4.723,-10.204L0,-12.168Z" style="fill:rgb(245,137,116);fill-rule:nonzero;"/>
            </g>
        </g>
        <g transform="matrix(1,0,0,1,-0.110308,0)">
            <g transform="matrix(0.444928,0,0,0.444928,6747.013313,120.347644)">
                <path d="M0,-13.084L0,-4.383L-4.157,-2.661L-6.621,-5.591L-6.621,-1.64L-10.578,0L-10.578,-8.686L-6.621,-10.331L-3.965,-7.52L-3.965,-11.435L0,-13.084Z" style="fill:rgb(245,137,116);fill-rule:nonzero;"/>
            </g>
        </g>
        <g transform="matrix(1,0,0,1,-0.110308,0)">
            <g transform="matrix(0,0.444928,0.444928,0,6751.294231,116.727444)">
                <path d="M-7.716,-2.964L0.994,-2.964L2.963,-7.716L-5.74,-7.716L-7.716,-2.964Z" style="fill:rgb(245,137,116);fill-rule:nonzero;"/>
            </g>
        </g>
        <g transform="matrix(1,0,0,1,-0.110308,0)">
            <g transform="matrix(0.444928,0,0,0.444928,6755.096807,116.449009)">
                <path d="M0,-11.875L0,-10.129L-2.833,-8.952L-2.833,-1.975L-7.599,0L-7.599,-6.972L-10.414,-5.802L-10.414,-7.545L0,-11.875Z" style="fill:rgb(245,137,116);fill-rule:nonzero;"/>
            </g>
        </g>
        <g transform="matrix(1,0,0,1,-0.110308,0)">
            <g transform="matrix(0.444928,0,0,0.444928,6760.373562,114.321897)">
                <path d="M0,-12.025L-3.492,-4.998L-3.492,-1.835L-7.923,0L-7.923,-3.16L-11.281,-7.335L-6.893,-9.159C-6.206,-7.74 -5.82,-6.753 -5.731,-6.2C-5.466,-7.243 -5.023,-8.574 -4.4,-10.196L0,-12.025Z" style="fill:rgb(245,137,116);fill-rule:nonzero;"/>
            </g>
        </g>
    </g>
</svg>
